<svg width="33" height="32" viewBox="0 0 33 32" fill="none" xmlns="http://www.w3.org/2000/svg">
<path d="M6.21634 26.2435C4.45898 24.4862 4.45898 21.6577 4.45898 16.0009C4.45898 10.344 4.45898 7.51557 6.21634 5.75821C7.9737 4.00085 10.8021 4.00085 16.459 4.00085C22.1158 4.00085 24.9443 4.00085 26.7017 5.75821C28.459 7.51557 28.459 10.344 28.459 16.0009C28.459 21.6577 28.459 24.4862 26.7017 26.2435C24.9443 28.0009 22.1158 28.0009 16.459 28.0009C10.8021 28.0009 7.9737 28.0009 6.21634 26.2435Z" fill="#00D05B" stroke="#00D05B" stroke-width="2" stroke-linecap="round" stroke-linejoin="round"/>
<path d="M9.79199 18.6676L13.5158 14.9437C14.0365 14.423 14.8808 14.423 15.4015 14.9437L17.5159 17.0581C18.0365 17.5788 18.8808 17.5788 19.4015 17.0581L23.1253 13.3342" stroke="#F8F9FA" stroke-width="2" stroke-linecap="round" stroke-linejoin="round"/>
</svg>
