<svg width="33" height="32" viewBox="0 0 33 32" fill="none" xmlns="http://www.w3.org/2000/svg">
<path d="M4.45898 14.6675C4.45898 9.66784 4.45898 7.16801 5.7322 5.41557C6.1434 4.84961 6.64112 4.35189 7.20708 3.94069C8.95952 2.66748 11.4593 2.66748 16.459 2.66748C21.4586 2.66748 23.9585 2.66748 25.7109 3.94069C26.2769 4.35189 26.7746 4.84961 27.1858 5.41557C28.459 7.16801 28.459 9.66784 28.459 14.6675V17.3341C28.459 22.3337 28.459 24.8336 27.1858 26.586C26.7746 27.152 26.2769 27.6497 25.7109 28.0609C23.9585 29.3341 21.4586 29.3341 16.459 29.3341C11.4593 29.3341 8.95952 29.3341 7.20708 28.0609C6.64112 27.6497 6.1434 27.152 5.7322 26.586C4.45898 24.8336 4.45898 22.3337 4.45898 17.3341V14.6675Z" fill="#28ACE2" stroke="#28ACE2" stroke-width="2" stroke-linecap="round" stroke-linejoin="round"/>
<path d="M20.4587 12.6675H9.79199M13.792 19.3341H9.79199" stroke="white" stroke-width="2" stroke-linecap="round" stroke-linejoin="round"/>
</svg>
