<svg width="25" height="24" viewBox="0 0 25 24" fill="none" xmlns="http://www.w3.org/2000/svg">
<path d="M21.7933 7.134L21.2993 6.277C20.9263 5.629 20.7393 5.305 20.4223 5.177C20.1043 5.047 19.7453 5.149 19.0273 5.353L17.8073 5.696C17.3483 5.802 16.8673 5.742 16.4483 5.527L16.1113 5.333C15.7521 5.10266 15.476 4.76347 15.3233 4.365L14.9893 3.368C14.7693 2.708 14.6593 2.378 14.3993 2.188C14.1363 2 13.7883 2 13.0943 2H11.9803C11.2853 2 10.9383 2 10.6773 2.189C10.4153 2.378 10.3063 2.708 10.0863 3.368L9.75228 4.365C9.5996 4.76347 9.32348 5.10266 8.96428 5.333L8.62728 5.527C8.2084 5.74184 7.72717 5.80204 7.26828 5.697L6.04828 5.353C5.33028 5.149 4.97128 5.047 4.65328 5.176C4.33628 5.306 4.14928 5.629 3.77628 6.277L3.28228 7.134C2.93228 7.741 2.75728 8.044 2.79228 8.368C2.82528 8.691 3.05928 8.951 3.52828 9.472L4.55828 10.625C4.81128 10.944 4.99028 11.5 4.99028 12C4.99028 12.5 4.81028 13.056 4.55928 13.375L3.52828 14.528C3.05928 15.048 2.82528 15.309 2.79128 15.632C2.75728 15.955 2.93228 16.259 3.28228 16.866L3.77628 17.723C4.14928 18.371 4.33628 18.695 4.65328 18.823C4.97128 18.953 5.33028 18.851 6.04828 18.647L7.26828 18.304C7.72828 18.198 8.20828 18.258 8.62828 18.473L8.96428 18.667C9.32328 18.897 9.59928 19.237 9.75228 19.635L10.0863 20.632C10.3063 21.292 10.4163 21.622 10.6763 21.812C10.9383 22 11.2863 22 11.9803 22H13.0943C13.7893 22 14.1363 22 14.3973 21.811C14.6593 21.622 14.7693 21.293 14.9883 20.633L15.3223 19.635C15.4753 19.236 15.7513 18.897 16.1103 18.667L16.4473 18.473C16.8662 18.2582 17.3474 18.198 17.8063 18.303L19.0263 18.647C19.7443 18.851 20.1033 18.953 20.4213 18.824C20.7383 18.694 20.9253 18.371 21.2983 17.723L21.7923 16.866C22.1423 16.259 22.3173 15.956 22.2823 15.632C22.2493 15.309 22.0153 15.049 21.5463 14.528L20.5163 13.375C20.2633 13.055 20.0843 12.5 20.0843 12C20.0843 11.5 20.2643 10.944 20.5153 10.625L21.5463 9.472C22.0153 8.952 22.2493 8.691 22.2833 8.368C22.3173 8.045 22.1433 7.741 21.7933 7.134Z" stroke="white" stroke-width="2" stroke-linecap="round"/>
<path d="M14.6002 11.5001L15.1002 11.0001C15.5412 10.5591 15.7622 10.3381 16.0512 10.4301C16.3412 10.5211 16.3872 10.7831 16.4782 11.3071C16.5182 11.5324 16.5382 11.7634 16.5382 12.0001C16.5386 12.6552 16.3779 13.3004 16.0705 13.879C15.7631 14.4575 15.3182 14.9517 14.7751 15.3181C14.232 15.6845 13.6071 15.9118 12.9556 15.9802C12.304 16.0485 11.6456 15.9558 11.0382 15.7101M10.5382 12.5351L9.99424 13.0791C9.56024 13.5131 9.34224 13.7311 9.05624 13.6441C8.76924 13.5571 8.71824 13.3001 8.61624 12.7871C8.47395 12.079 8.52603 11.3456 8.76694 10.6647C9.00786 9.98386 9.42863 9.38092 9.9846 8.91991C10.5406 8.4589 11.211 8.15701 11.9247 8.0463C12.6384 7.93559 13.3687 8.02018 14.0382 8.29109" stroke="white" stroke-width="2" stroke-linecap="round" stroke-linejoin="round"/>
</svg>
