<svg width="25" height="24" viewBox="0 0 25 24" fill="none" xmlns="http://www.w3.org/2000/svg">
<g clip-path="url(#clip0_6054_6912)">
<path d="M17.3157 21.4085H1.35157C0.632852 21.4085 0.0499268 20.9308 0.0499268 20.3411V4.61286C0.0499268 4.02345 0.632852 3.54541 1.35157 3.54541H17.3157C18.0344 3.54541 18.6178 4.02345 18.6178 4.61286V20.3414C18.6178 20.9308 18.0349 21.4085 17.3157 21.4085Z" fill="white"/>
<path d="M14.7106 18.9025H3.95667C3.23795 18.9025 2.65503 18.4245 2.65503 17.8347V7.11921C2.65503 6.5298 3.23795 6.05176 3.95667 6.05176H14.7106C15.4298 6.05176 16.0127 6.5298 16.0127 7.11921V17.8351C16.0127 18.4245 15.4303 18.9025 14.7106 18.9025Z" fill="#F2F2F2"/>
<path d="M13.8789 8.86328H4.78882V10.1241H13.8789V8.86328Z" fill="#6BE4A0"/>
<path d="M13.8789 12.0967H4.78882V13.3572H13.8789V12.0967Z" fill="#6BE4A0"/>
<path d="M13.8789 15.3301H4.78882V16.5906H13.8789V15.3301Z" fill="#6BE4A0"/>
<path d="M11.4128 1.06965V0.975869C11.4128 0.437016 10.8794 0 10.2223 0H8.44497C7.78745 0 7.255 0.437016 7.255 0.975869V1.06965C7.255 1.6085 6.72211 2.04552 6.06503 2.04552H5.11984C4.46277 2.04552 3.92987 2.48253 3.92987 3.02138V3.52397C3.92987 4.06319 4.46277 4.49984 5.11984 4.49984H13.5479C14.2054 4.49984 14.7379 4.06319 14.7379 3.52397V3.02138C14.7379 2.48253 14.2054 2.04552 13.5479 2.04552H12.6027C11.9452 2.04552 11.4128 1.6085 11.4128 1.06965Z" fill="#E5FFE2"/>
<path d="M18.6178 23.9997C21.6176 23.9997 24.0495 22.0053 24.0495 19.5452C24.0495 17.0851 21.6176 15.0908 18.6178 15.0908C15.618 15.0908 13.1861 17.0851 13.1861 19.5452C13.1861 22.0053 15.618 23.9997 18.6178 23.9997Z" fill="white"/>
<path d="M18.6174 23.1924C16.1651 23.1924 14.1702 21.5561 14.1702 19.545C14.1702 17.5339 16.1651 15.8979 18.6174 15.8979C21.0697 15.8979 23.065 17.5339 23.065 19.545C23.065 21.5561 21.0701 23.1924 18.6174 23.1924ZM18.6174 16.1745C16.3513 16.1745 14.5074 17.6867 14.5074 19.545C14.5074 21.4037 16.3513 22.9159 18.6174 22.9159C20.8839 22.9159 22.7278 21.4037 22.7278 19.545C22.7282 17.6867 20.8843 16.1745 18.6174 16.1745Z" fill="#15B700"/>
<path d="M18.0232 21.7989C18.0232 21.7989 17.5484 20.349 16.4263 19.3417C16.3106 19.238 16.324 19.0761 16.4491 18.9801L16.4857 18.9519C16.618 18.8501 16.8252 18.8585 16.944 18.9702C17.2456 19.2545 17.7784 19.8278 18.1269 20.5754C18.54 19.7204 19.3709 18.5471 21.0156 17.9599C21.1442 17.9141 21.2957 17.9475 21.3845 18.0369L21.3886 18.0409C21.5105 18.1632 21.473 18.3446 21.3086 18.427C19.3758 19.3996 18.0232 21.7989 18.0232 21.7989Z" fill="#15B700"/>
</g>
<defs>
<clipPath id="clip0_6054_6912">
<rect width="24" height="24" fill="white" transform="translate(0.0499268)"/>
</clipPath>
</defs>
</svg>
