<svg width="25" height="24" viewBox="0 0 25 24" fill="none" xmlns="http://www.w3.org/2000/svg">
<path d="M13.439 8.64453C13.4264 8.65953 11.6077 10.8266 11.5688 10.9043L10.3999 13.6309C10.2051 14.0984 10.3218 14.6054 10.7114 14.9561C11.101 15.3067 11.6471 15.3451 12.0757 15.1113L14.8022 13.5537C14.9191 13.4758 15.0368 13.3972 15.1147 13.2803L19.0103 8.64453H20.4526C20.6861 8.64475 20.8413 8.80059 20.8413 9.03418V19.9424C20.8413 20.176 20.6861 20.3318 20.4526 20.332H6.23096C4.82833 20.332 3.69873 19.4746 3.69873 17.6436C3.77684 16.3581 4.78996 15.3455 6.03662 15.2676H6.81494V8.64453H13.439ZM6.03662 14.4883C6.03662 14.4883 4.32212 14.7612 3.69873 15.6572V6.69629C3.69874 6.07293 4.24438 4.3584 6.03662 4.3584V14.4883ZM14.2183 13.0078L11.7251 14.4492C11.6472 14.4882 11.6077 14.4883 11.5298 14.4883C11.4129 14.4883 11.3352 14.449 11.2573 14.3711C11.1015 14.2932 11.0622 14.0982 11.1401 13.9424L12.1919 11.4883L14.2183 13.0078ZM18.1147 4.28125C18.699 3.69701 19.283 3.77433 19.7505 4.04688C19.7505 4.04688 20.4516 4.55336 20.5298 5.09863C20.5687 5.44926 20.4521 5.76136 20.2573 5.99512L14.8022 12.4619L12.6206 10.8262L18.1147 4.28125Z" fill="#FFFFFA"/>
</svg>
