<svg width="24" height="24" viewBox="0 0 24 24" fill="none" xmlns="http://www.w3.org/2000/svg">
<path fill-rule="evenodd" clip-rule="evenodd" d="M12.0002 1.25C6.06324 1.25 1.25024 6.063 1.25024 12C1.25024 17.937 6.06324 22.75 12.0002 22.75C17.9372 22.75 22.7502 17.937 22.7502 12C22.7502 6.063 17.9372 1.25 12.0002 1.25ZM10.8242 9.009L13.9872 9.02C13.9972 9.116 14.0012 9.26 14.0022 9.505C14.003 9.77022 14.1092 10.0243 14.2973 10.2112C14.4854 10.3982 14.74 10.5028 15.0052 10.502C15.2705 10.5012 15.5245 10.3951 15.7115 10.207C15.8984 10.0189 16.003 9.76422 16.0022 9.499C16.0022 9.241 15.9982 8.979 15.9692 8.745C15.9398 8.46293 15.8494 8.19064 15.7042 7.947C15.3472 7.366 14.8062 7.138 14.3562 7.054C14.0262 6.994 13.6602 6.999 13.4362 7.002H10.7362C10.2392 7.002 9.76425 7.002 9.40225 7.053C9.08125 7.098 8.35124 7.244 8.08224 7.989C7.81624 8.722 8.26624 9.302 8.47925 9.547C8.72024 9.824 9.07925 10.139 9.45825 10.471L11.1962 12.007L9.45825 13.53C9.07925 13.862 8.72024 14.176 8.47824 14.454C8.26624 14.698 7.81625 15.279 8.08125 16.012C8.35125 16.757 9.08125 16.902 9.40225 16.948C9.76425 16.998 10.2392 16.998 10.7362 16.998C10.7362 16.998 10.7142 16.999 10.7362 16.999H13.4362C13.6602 17.002 14.0262 17.008 14.3562 16.947C14.8062 16.863 15.3472 16.635 15.7042 16.054C15.8712 15.782 15.9382 15.504 15.9692 15.256C15.9982 15.022 16.0012 14.76 16.0022 14.502C16.0026 14.3707 15.9772 14.2406 15.9273 14.1191C15.8774 13.9976 15.8041 13.8872 15.7115 13.794C15.6189 13.7009 15.5089 13.6269 15.3877 13.5763C15.2665 13.5257 15.1366 13.4994 15.0052 13.499C14.8739 13.4986 14.7438 13.5241 14.6223 13.574C14.5009 13.6239 14.3904 13.6972 14.2973 13.7898C14.2041 13.8824 14.1301 13.9924 14.0795 14.1135C14.0289 14.2347 14.0026 14.3647 14.0022 14.496C14.0022 14.742 13.9972 14.885 13.9872 14.981L10.8172 14.998L12.5472 13.483C12.7192 13.333 12.9172 13.158 13.0662 12.986C13.2432 12.781 13.4592 12.454 13.4592 12C13.4592 11.546 13.2432 11.22 13.0662 11.015C12.9042 10.8379 12.7305 10.6718 12.5462 10.518L10.8242 9.009Z" fill="white"/>
</svg>
