<svg width="33" height="32" viewBox="0 0 33 32" fill="none" xmlns="http://www.w3.org/2000/svg">
<path d="M26.459 7.33423L25.6327 20.701C25.4215 24.1161 25.3161 25.8237 24.4601 27.0514C24.0367 27.6584 23.4919 28.1706 22.8599 28.5556C21.5818 29.3342 19.871 29.3342 16.4493 29.3342C13.0231 29.3342 11.3101 29.3342 10.0311 28.5541C9.39872 28.1685 8.85365 27.6553 8.43056 27.0473C7.57482 25.8177 7.47158 24.1077 7.26513 20.6878L6.45898 7.33423" fill="#FB4247"/>
<path d="M26.459 7.33423L25.6327 20.701C25.4215 24.1161 25.3161 25.8237 24.4601 27.0514C24.0367 27.6584 23.4919 28.1706 22.8599 28.5556C21.5818 29.3342 19.871 29.3342 16.4493 29.3342C13.0231 29.3342 11.3101 29.3342 10.0311 28.5541C9.39872 28.1685 8.85365 27.6553 8.43056 27.0473C7.57482 25.8177 7.47158 24.1077 7.26513 20.6878L6.45898 7.33423" stroke="#FB4247" stroke-width="2" stroke-linecap="round"/>
<path d="M4.45898 7.33415H28.459H4.45898ZM21.8666 7.33415L20.9565 5.45645C20.3518 4.20916 20.0494 3.58551 19.5279 3.19656C19.4123 3.11028 19.2898 3.03353 19.1617 2.96708C18.5842 2.66748 17.8911 2.66748 16.505 2.66748C15.0841 2.66748 14.3737 2.66748 13.7866 2.97964C13.6565 3.04883 13.5323 3.12868 13.4154 3.21837C12.8878 3.62308 12.5932 4.26955 12.0038 5.56249L11.1962 7.33415" fill="#FB4348"/>
<path d="M4.45898 7.33415H28.459M21.8666 7.33415L20.9565 5.45645C20.3518 4.20916 20.0494 3.58551 19.5279 3.19656C19.4123 3.11028 19.2898 3.03353 19.1617 2.96708C18.5842 2.66748 17.8911 2.66748 16.505 2.66748C15.0841 2.66748 14.3737 2.66748 13.7866 2.97964C13.6565 3.04883 13.5323 3.12868 13.4154 3.21837C12.8878 3.62308 12.5932 4.26955 12.0038 5.56249L11.1962 7.33415" stroke="#FB4247" stroke-width="2" stroke-linecap="round"/>
<path d="M13.126 22.0009V14.0009" stroke="#F8F9FA" stroke-width="2" stroke-linecap="round"/>
<path d="M19.792 22.0009V14.0009" stroke="#F8F9FA" stroke-width="2" stroke-linecap="round"/>
</svg>
