<svg width="40" height="41" viewBox="0 0 40 41" fill="none" xmlns="http://www.w3.org/2000/svg">
<path d="M20 18.8333C20.442 18.8333 20.866 19.0089 21.1785 19.3214C21.4911 19.634 21.6667 20.0579 21.6667 20.4999L21.6667 31.4733L23.8217 29.3199C24.1346 29.0074 24.5589 28.832 25.0012 28.8323C25.4435 28.8326 25.8675 29.0086 26.18 29.3216C26.4925 29.6345 26.6679 30.0588 26.6676 30.5011C26.6673 30.9434 26.4913 31.3674 26.1783 31.6799L21.4717 36.3783C21.05 36.7983 20.6383 37.1666 20 37.1666C19.44 37.1666 19.0567 36.8849 18.6867 36.5333L13.8217 31.6799C13.5087 31.3674 13.3327 30.9434 13.3324 30.5011C13.3321 30.0588 13.5075 29.6345 13.82 29.3216C14.1325 29.0086 14.5566 28.8326 14.9988 28.8323C15.4411 28.832 15.8654 29.0074 16.1783 29.3199L18.3333 31.4733L18.3333 20.4999C18.3333 20.0579 18.5089 19.634 18.8215 19.3214C19.1341 19.0089 19.558 18.8333 20 18.8333ZM19.1667 3.83325C23.8067 3.83326 27.7667 6.74992 29.31 10.8533C31.366 11.4185 33.1876 12.6259 34.5092 14.2993C35.8307 15.9726 36.5831 18.0244 36.6566 20.1554C36.7301 22.2864 36.1209 24.3852 34.9177 26.1456C33.7146 27.906 31.9805 29.236 29.9683 29.9416C29.8422 28.8166 29.338 27.7678 28.5383 26.9666C27.6855 26.1124 26.5524 25.5956 25.3483 25.5116L25 25.4999L25 20.4999C25.0013 19.1984 24.495 17.9477 23.5887 17.0136C22.6825 16.0794 21.4477 15.5355 20.1467 15.4973C18.8458 15.4591 17.5812 15.9296 16.6217 16.809C15.6622 17.6884 15.0834 18.9072 15.0083 20.2066L15 20.4999L15 25.4999C14.3428 25.4998 13.692 25.6293 13.0848 25.881C12.4777 26.1327 11.9261 26.5016 11.4617 26.9666C10.5665 27.8635 10.0453 29.0668 10.0033 30.3333C8.26822 29.9787 6.69109 29.0808 5.50054 27.7697C4.31 26.4586 3.56791 24.8024 3.38184 23.0413C3.19577 21.2801 3.57539 19.5054 4.46566 17.9745C5.35594 16.4436 6.71062 15.2359 8.33335 14.5266C8.37017 11.6777 9.52777 8.95807 11.5554 6.95661C13.5831 4.95514 16.3176 3.83302 19.1667 3.83325Z" fill="#20B7FA"/>
</svg>
