<svg width="24" height="24" viewBox="0 0 24 24" fill="none" xmlns="http://www.w3.org/2000/svg">
<path d="M7.55556 8.2C7.24074 8.2 6.97704 8.0944 6.76445 7.8832C6.55185 7.672 6.44519 7.41093 6.44445 7.1C6.44371 6.78907 6.55037 6.528 6.76445 6.3168C6.97852 6.1056 7.24222 6 7.55556 6H20.8889C21.2037 6 21.4678 6.1056 21.6811 6.3168C21.8944 6.528 22.0007 6.78907 22 7.1C21.9993 7.41093 21.8926 7.67236 21.68 7.8843C21.4674 8.09623 21.2037 8.20146 20.8889 8.2H7.55556ZM7.55556 12.6C7.24074 12.6 6.97704 12.4944 6.76445 12.2832C6.55185 12.072 6.44519 11.8109 6.44445 11.5C6.44371 11.1891 6.55037 10.928 6.76445 10.7168C6.97852 10.5056 7.24222 10.4 7.55556 10.4H20.8889C21.2037 10.4 21.4678 10.5056 21.6811 10.7168C21.8944 10.928 22.0007 11.1891 22 11.5C21.9993 11.8109 21.8926 12.0724 21.68 12.2843C21.4674 12.4962 21.2037 12.6015 20.8889 12.6H7.55556ZM7.55556 17C7.24074 17 6.97704 16.8944 6.76445 16.6832C6.55185 16.472 6.44519 16.2109 6.44445 15.9C6.44371 15.5891 6.55037 15.328 6.76445 15.1168C6.97852 14.9056 7.24222 14.8 7.55556 14.8H20.8889C21.2037 14.8 21.4678 14.9056 21.6811 15.1168C21.8944 15.328 22.0007 15.5891 22 15.9C21.9993 16.2109 21.8926 16.4724 21.68 16.6843C21.4674 16.8962 21.2037 17.0015 20.8889 17H7.55556ZM3.11111 8.2C2.7963 8.2 2.5326 8.0944 2.32 7.8832C2.10741 7.672 2.00074 7.41093 2 7.1C1.99926 6.78907 2.10593 6.528 2.32 6.3168C2.53408 6.1056 2.79778 6 3.11111 6C3.42445 6 3.68852 6.1056 3.90334 6.3168C4.11815 6.528 4.22445 6.78907 4.22223 7.1C4.22 7.41093 4.11334 7.67236 3.90223 7.8843C3.69111 8.09623 3.42741 8.20146 3.11111 8.2ZM3.11111 12.6C2.7963 12.6 2.5326 12.4944 2.32 12.2832C2.10741 12.072 2.00074 11.8109 2 11.5C1.99926 11.1891 2.10593 10.928 2.32 10.7168C2.53408 10.5056 2.79778 10.4 3.11111 10.4C3.42445 10.4 3.68852 10.5056 3.90334 10.7168C4.11815 10.928 4.22445 11.1891 4.22223 11.5C4.22 11.8109 4.11334 12.0724 3.90223 12.2843C3.69111 12.4962 3.42741 12.6015 3.11111 12.6ZM3.11111 17C2.7963 17 2.5326 16.8944 2.32 16.6832C2.10741 16.472 2.00074 16.2109 2 15.9C1.99926 15.5891 2.10593 15.328 2.32 15.1168C2.53408 14.9056 2.79778 14.8 3.11111 14.8C3.42445 14.8 3.68852 14.9056 3.90334 15.1168C4.11815 15.328 4.22445 15.5891 4.22223 15.9C4.22 16.2109 4.11334 16.4724 3.90223 16.6843C3.69111 16.8962 3.42741 17.0015 3.11111 17Z" fill="#A7DDF3"/>
</svg>
