<svg width="24" height="24" viewBox="0 0 24 24" fill="none" xmlns="http://www.w3.org/2000/svg">
<path d="M19.5857 4.53593L18.6189 5.49079M17.5474 23.0296V18.5965C17.5474 17.4267 17.0827 16.3047 16.2555 15.4776C15.4283 14.6504 14.3064 14.1856 13.1366 14.1856H9.68229V7.35421C9.68229 6.26907 8.80286 5.38793 7.716 5.38793C6.63086 5.38793 5.74972 6.26907 5.74972 7.35421V16.3096L5.29714 16.3954C4.81597 16.4857 4.36499 16.6949 3.98513 17.0037C3.60527 17.3126 3.30856 17.7115 3.12193 18.1641C2.93529 18.6167 2.86465 19.1088 2.9164 19.5956C2.96815 20.0824 3.14067 20.5487 3.41829 20.9519L3.56572 21.1645L4.848 23.0296M2.00057 9.01364C1.74283 7.91093 1.80748 6.75736 2.18681 5.69035C2.56614 4.62333 3.24416 3.68783 4.14013 2.99526C5.0361 2.30269 6.11225 1.88224 7.24042 1.78398C8.36859 1.68573 9.50122 1.91382 10.5034 2.44107M14.0983 5.4925C14.0983 6.69189 14.5747 7.84215 15.4228 8.69024C16.2709 9.53833 17.4212 10.0148 18.6206 10.0148C19.82 10.0148 20.9702 9.53833 21.8183 8.69024C22.6664 7.84215 23.1429 6.69189 23.1429 5.4925C23.1429 4.29312 22.6664 3.14285 21.8183 2.29476C20.9702 1.44667 19.82 0.970215 18.6206 0.970215C17.4212 0.970215 16.2709 1.44667 15.4228 2.29476C14.5747 3.14285 14.0983 4.29312 14.0983 5.4925Z" stroke="black" stroke-width="1.5" stroke-linecap="round" stroke-linejoin="round"/>
</svg>
