<svg width="24" height="24" viewBox="0 0 24 24" fill="none" xmlns="http://www.w3.org/2000/svg">
<path d="M12.7575 1.50006C13.3905 1.49556 14.0235 1.75506 14.5065 2.27406L17.4315 5.34906C17.751 5.69106 17.751 6.24906 17.4315 6.59106C17.3584 6.67183 17.2691 6.73639 17.1695 6.78057C17.07 6.82476 16.9622 6.84758 16.8533 6.84758C16.7443 6.84758 16.6365 6.82476 16.537 6.78057C16.4374 6.73639 16.3481 6.67183 16.275 6.59106L13.5 3.67656V15.6661C13.5 16.1266 13.164 16.5001 12.75 16.5001C12.336 16.5001 12 16.1266 12 15.6661V3.72606L9.27 6.59106C9.19689 6.67159 9.10774 6.73594 9.00829 6.77997C8.90883 6.82401 8.80127 6.84675 8.6925 6.84675C8.58373 6.84675 8.47617 6.82401 8.37671 6.77997C8.27726 6.73594 8.18811 6.67159 8.115 6.59106C7.96058 6.4208 7.87505 6.19916 7.87505 5.96931C7.87505 5.73945 7.96058 5.51782 8.115 5.34756L11.04 2.27256C11.2574 2.03418 11.5213 1.8427 11.8153 1.70987C12.1093 1.57704 12.4274 1.50564 12.75 1.50006H12.7575ZM6.27 10.5001C5.5605 10.5001 4.95 10.9411 4.812 11.5546L3.0285 19.4296C3.01156 19.5146 3.00203 19.6009 3 19.6876C3 20.4121 3.666 21.0001 4.485 21.0001H21.015C21.113 21.0001 21.21 20.9916 21.306 20.9746C22.1115 20.8321 22.6335 20.1406 22.473 19.4296L20.688 11.5546C20.55 10.9411 19.9395 10.5001 19.233 10.5001H6.27ZM9 9.00006V10.5001H16.5V9.00006H19.2375C20.6565 9.00006 21.8775 9.90906 22.1565 11.1706L23.9415 19.2706C24.264 20.7331 23.2185 22.1551 21.6075 22.4476C21.4147 22.4841 21.2187 22.5017 21.0225 22.5001H4.4775C2.832 22.5001 1.5 21.2911 1.5 19.8001C1.5 19.6211 1.5195 19.4446 1.5585 19.2706L3.3435 11.1706C3.621 9.90906 4.8435 9.00006 6.261 9.00006H9Z" fill="#20B7FA"/>
</svg>
