<svg width="24" height="24" viewBox="0 0 24 24" fill="none" xmlns="http://www.w3.org/2000/svg">
<path d="M7.79199 21.25H16.208C17.1363 21.25 18.0265 20.8813 18.6829 20.2249C19.3392 19.5685 19.708 18.6783 19.708 17.75V12.22C19.7083 11.2919 19.34 10.4016 18.684 9.745L12.715 3.775C12.39 3.45 12.0041 3.19221 11.5794 3.01634C11.1548 2.84047 10.6996 2.74997 10.24 2.75H7.79199C6.86373 2.75 5.9735 3.11875 5.31712 3.77513C4.66074 4.4315 4.29199 5.32174 4.29199 6.25V17.75C4.29199 18.6783 4.66074 19.5685 5.31712 20.2249C5.9735 20.8813 6.86373 21.25 7.79199 21.25Z" stroke="black" stroke-width="1.5" stroke-linecap="round" stroke-linejoin="round"/>
<path d="M11.688 3.11011V8.77011C11.688 9.30054 11.8987 9.80925 12.2738 10.1843C12.6488 10.5594 13.1576 10.7701 13.688 10.7701H19.35" stroke="black" stroke-width="1.5" stroke-linecap="round" stroke-linejoin="round"/>
<path d="M7.25 16.5V15.5M7.25 15.5V13.5H8.25C8.51522 13.5 8.76957 13.6054 8.95711 13.7929C9.14464 13.9804 9.25 14.2348 9.25 14.5C9.25 14.7652 9.14464 15.0196 8.95711 15.2071C8.76957 15.3946 8.51522 15.5 8.25 15.5H7.25ZM15.25 16.5V15.25M15.25 15.25V13.5H16.75M15.25 15.25H16.75M11.25 16.5V13.5H11.75C12.1478 13.5 12.5294 13.658 12.8107 13.9393C13.092 14.2206 13.25 14.6022 13.25 15C13.25 15.3978 13.092 15.7794 12.8107 16.0607C12.5294 16.342 12.1478 16.5 11.75 16.5H11.25Z" stroke="black" stroke-linecap="round" stroke-linejoin="round"/>
</svg>
