<svg width="33" height="32" viewBox="0 0 33 32" fill="none" xmlns="http://www.w3.org/2000/svg">
<path d="M25.7922 18.0008C25.7922 22.3841 25.7922 24.5757 24.5816 26.0509C24.36 26.3209 24.1124 26.5685 23.8423 26.7901C22.3673 28.0008 20.1755 28.0008 15.7922 28.0008H15.1257C10.0973 28.0008 7.5832 28.0008 6.0211 26.4387C4.45902 24.8767 4.45898 22.3624 4.45898 17.3341V16.6675C4.45898 12.2842 4.45898 10.0925 5.66957 8.6174C5.89121 8.34735 6.13885 8.09971 6.4089 7.87807C7.88404 6.66748 10.0757 6.66748 14.459 6.66748" fill="#F3B700"/>
<path d="M22.3592 6.14097L23.6792 4.82098C24.7728 3.72748 26.5457 3.72748 27.6392 4.82098C28.7326 5.9145 28.7326 7.68742 27.6392 8.78094L26.3192 10.1009M22.3592 6.14097L13.4801 15.0201C12.8034 15.6969 12.3234 16.5446 12.0913 17.473L11.126 21.3342L14.9872 20.3689C15.9156 20.1369 16.7633 19.6567 17.4401 18.9801L26.3192 10.1009M22.3592 6.14097L26.3192 10.1009L22.3592 6.14097Z" fill="white"/>
<path d="M22.3592 6.14097L23.6792 4.82098C24.7728 3.72748 26.5457 3.72748 27.6392 4.82098C28.7326 5.9145 28.7326 7.68742 27.6392 8.78094L26.3192 10.1009M22.3592 6.14097L13.4801 15.0201C12.8034 15.6969 12.3234 16.5446 12.0913 17.473L11.126 21.3342L14.9872 20.3689C15.9156 20.1369 16.7633 19.6567 17.4401 18.9801L26.3192 10.1009M22.3592 6.14097L26.3192 10.1009" stroke="#F3B700" stroke-width="2" stroke-linejoin="round"/>
</svg>
