<svg width="24" height="24" viewBox="0 0 24 24" fill="none" xmlns="http://www.w3.org/2000/svg">
<path d="M8 21C7.45 21 6.97933 20.8043 6.588 20.413C6.19667 20.0217 6.00067 19.5507 6 19V17H4C3.45 17 2.97933 16.8043 2.588 16.413C2.19667 16.0217 2.00067 15.5507 2 15V11C2 10.15 2.29167 9.43767 2.875 8.863C3.45833 8.28833 4.16667 8.00067 5 8H19C19.85 8 20.5627 8.28767 21.138 8.863C21.7133 9.43833 22.0007 10.1507 22 11V15C22 15.55 21.8043 16.021 21.413 16.413C21.0217 16.805 20.5507 17.0007 20 17H18V19C18 19.55 17.8043 20.021 17.413 20.413C17.0217 20.805 16.5507 21.0007 16 21H8ZM4 15H6C6 14.45 6.196 13.9793 6.588 13.588C6.98 13.1967 7.45067 13.0007 8 13H16C16.55 13 17.021 13.196 17.413 13.588C17.805 13.98 18.0007 14.4507 18 15H20V11C20 10.7167 19.904 10.4793 19.712 10.288C19.52 10.0967 19.2827 10.0007 19 10H5C4.71667 10 4.47933 10.096 4.288 10.288C4.09667 10.48 4.00067 10.7173 4 11V15ZM16 8V5H8V8H6V5C6 4.45 6.196 3.97933 6.588 3.588C6.98 3.19667 7.45067 3.00067 8 3H16C16.55 3 17.021 3.196 17.413 3.588C17.805 3.98 18.0007 4.45067 18 5V8H16ZM18 12.5C18.2833 12.5 18.521 12.404 18.713 12.212C18.905 12.02 19.0007 11.7827 19 11.5C18.9993 11.2173 18.9033 10.98 18.712 10.788C18.5207 10.596 18.2833 10.5 18 10.5C17.7167 10.5 17.4793 10.596 17.288 10.788C17.0967 10.98 17.0007 11.2173 17 11.5C16.9993 11.7827 17.0953 12.0203 17.288 12.213C17.4807 12.4057 17.718 12.5013 18 12.5ZM16 19V15H8V19H16Z" fill="black"/>
</svg>
