<svg width="107" height="108" viewBox="0 0 107 108" fill="none" xmlns="http://www.w3.org/2000/svg">
  <path d="M80.1284 80.4444C94.8286 65.7442 94.8286 41.9105 80.1285 27.2104C65.4283 12.5102 41.5946 12.5102 26.8944 27.2104C12.1942 41.9106 12.1942 65.7444 26.8943 80.4445C41.5945 95.1447 65.4282 95.1446 80.1284 80.4444Z" fill="white"/>
  <path d="M54.0086 91.9659C74.7979 91.9659 91.6509 75.1128 91.6509 54.3235C91.6509 33.5342 74.7979 16.6812 54.0086 16.6812C33.2193 16.6812 16.3662 33.5342 16.3662 54.3235C16.3662 75.1128 33.2193 91.9659 54.0086 91.9659Z" fill="url(#paint0_linear_72_28887)"/>
  <path d="M54.0088 88.6116C72.9456 88.6116 88.2969 73.2603 88.2969 54.3235C88.2969 35.3867 72.9456 20.0354 54.0088 20.0354C35.072 20.0354 19.7207 35.3867 19.7207 54.3235C19.7207 73.2603 35.072 88.6116 54.0088 88.6116Z" fill="url(#paint1_linear_72_28887)"/>
  <defs>
    <linearGradient id="paint0_linear_72_28887" x1="76.4846" y1="82.0782" x2="29.1039" y2="23.5697" gradientUnits="userSpaceOnUse">
      <stop stop-color="#E6E6E6"/>
      <stop offset="1" stop-color="white"/>
    </linearGradient>
    <linearGradient id="paint1_linear_72_28887" x1="49.3592" y1="31.2778" x2="61.9944" y2="93.9032" gradientUnits="userSpaceOnUse">
      <stop stop-color="#E6E6E6"/>
      <stop offset="1" stop-color="white"/>
    </linearGradient>
  </defs>
</svg>