<svg width="40" height="41" viewBox="0 0 40 41" fill="none" xmlns="http://www.w3.org/2000/svg">
<path d="M31.2546 35.0525H22.6727V26.3807H25.5088C26.228 26.3807 26.653 25.5634 26.228 24.9749L20.7111 17.3411C20.3596 16.8507 19.6322 16.8507 19.2808 17.3411L13.7638 24.9749C13.3388 25.5634 13.7556 26.3807 14.483 26.3807H17.3192V35.0525H7.7074C3.41643 34.8155 0 30.8024 0 26.4543C0 23.4547 1.62648 20.8392 4.0376 19.4252C3.81692 18.8286 3.70249 18.1911 3.70249 17.5209C3.70249 14.4559 6.17899 11.9794 9.24397 11.9794C9.90601 11.9794 10.5435 12.0938 11.1402 12.3145C12.9138 8.55478 16.7389 5.94751 21.1851 5.94751C26.9391 5.95568 31.6796 10.3611 32.219 15.9761C36.6408 16.7362 40 20.831 40 25.4653C40 30.4183 36.1422 34.7093 31.2546 35.0525Z" fill="#20B7FA"/>
</svg>
